<?xml version="1.0" standalone="no"?><!DOCTYPE svg PUBLIC "-//W3C//DTD SVG 1.1//EN" "http://www.w3.org/Graphics/SVG/1.1/DTD/svg11.dtd"><svg t="1715010949409" class="icon" viewBox="0 0 1024 1024" version="1.1" xmlns="http://www.w3.org/2000/svg" p-id="2086" width="16" height="16" xmlns:xlink="http://www.w3.org/1999/xlink"><path d="M935.44448 346.3168l-335.70816 182.272c-31.00672 16.62976-49.93024 49.88928-49.93024 86.95808v352.37888c0 37.80608 37.0688 62.75072 68.07552 45.34272l335.74912-182.23104C983.8592 814.40768 1003.52 781.14816 1003.52 744.07936V392.47872c0-38.58432-37.0688-62.79168-68.07552-46.16192z m-511.1808 181.49376l-335.70816-181.4528C57.5488 329.64608 20.48 353.8944 20.48 391.65952v353.8944c0 37.0688 18.92352 70.32832 49.88928 86.95808l335.74912 181.4528c31.00672 16.67072 68.07552-8.27392 68.07552-46.08v-353.15712c0-37.02784-18.92352-70.32832-49.93024-86.95808z m480.21504-263.90528c15.85152-8.31488 23.42912-22.69184 21.9136-36.29056 1.51552-14.336-6.06208-27.97568-21.9136-36.29056L562.66752 12.86144c-15.1552-8.31488-33.25952-12.12416-51.4048-12.12416-18.18624 0-36.33152 3.80928-51.44576 12.12416L118.04672 190.54592c-15.89248 8.31488-22.69184 22.69184-21.95456 36.29056-0.73728 14.37696 6.06208 28.75392 21.95456 37.0688l341.77024 177.72544c15.1552 8.31488 33.25952 12.0832 51.44576 12.0832 18.14528 0 36.29056-3.76832 51.4048-12.0832l341.8112-177.72544z" fill="#ffffff" p-id="2087"></path></svg>